<svg width="129" height="128" viewBox="0 0 129 128" fill="none" xmlns="http://www.w3.org/2000/svg">
<path d="M80.625 32H72.5625C72.5625 26.6957 70.4389 21.6086 66.6589 17.8579C62.8788 14.1071 57.752 12 52.4062 12C47.0605 12 41.9337 14.1071 38.1536 17.8579C34.3736 21.6086 32.25 26.6957 32.25 32H24.1875C24.1875 24.5739 27.1605 17.452 32.4526 12.201C37.7446 6.94999 44.9222 4 52.4062 4C59.8903 4 67.0679 6.94999 72.3599 12.201C77.652 17.452 80.625 24.5739 80.625 32Z" fill="#FAFAFA" fill-opacity="0.9"/>
<path d="M100.781 60C98.6986 60.0074 96.6546 60.5593 94.8553 61.6C93.7685 59.8895 92.2637 58.4793 90.4806 57.5003C88.6976 56.5213 86.6941 56.0052 84.6563 56C82.5736 56.0074 80.5296 56.5593 78.7303 57.6C77.2637 55.3101 75.0582 53.581 72.4738 52.6947C69.8895 51.8085 67.0786 51.8174 64.5 52.72V32C64.5 28.8174 63.2258 25.7652 60.9578 23.5147C58.6898 21.2643 55.6137 20 52.4063 20C49.1988 20 46.1227 21.2643 43.8547 23.5147C41.5867 25.7652 40.3125 28.8174 40.3125 32V76.4L31.3228 70.32C29.262 68.7972 26.757 67.9827 24.1875 68C21.7888 67.9941 19.4426 68.6962 17.447 70.0168C15.4515 71.3375 13.8968 73.2172 12.9807 75.4168C12.0646 77.6165 11.8284 80.0368 12.3021 82.37C12.7759 84.7032 13.9382 86.8439 15.6413 88.52L47.8913 117.72C52.457 121.775 58.3725 124.012 64.5 124H84.6563C92.1403 124 99.3179 121.05 104.61 115.799C109.902 110.548 112.875 103.426 112.875 96V72C112.875 68.8174 111.601 65.7652 109.333 63.5147C107.065 61.2643 103.989 60 100.781 60ZM104.813 96C104.813 101.304 102.689 106.391 98.9089 110.142C95.1289 113.893 90.002 116 84.6563 116H64.5C60.4252 116.049 56.4713 114.627 53.3738 112L21.3253 82.8C20.5806 82.055 20.1607 81.0494 20.1563 80C20.1563 79.2572 20.3647 78.529 20.7583 77.8971C21.1519 77.2652 21.7151 76.7545 22.3847 76.4223C23.0543 76.0901 23.8039 75.9494 24.5495 76.0162C25.2952 76.0829 26.0073 76.3543 26.6063 76.8L48.375 91.6V32C48.375 30.9391 48.7997 29.9217 49.5557 29.1716C50.3117 28.4214 51.3371 28 52.4063 28C53.4754 28 54.5008 28.4214 55.2568 29.1716C56.0128 29.9217 56.4375 30.9391 56.4375 32V76H64.5V64C64.5 62.9391 64.9247 61.9217 65.6807 61.1716C66.4367 60.4214 67.4621 60 68.5313 60C69.6004 60 70.6258 60.4214 71.3818 61.1716C72.1378 61.9217 72.5625 62.9391 72.5625 64V76H80.625V68C80.625 66.9391 81.0497 65.9217 81.8057 65.1716C82.5617 64.4214 83.5871 64 84.6563 64C85.7254 64 86.7508 64.4214 87.5068 65.1716C88.2628 65.9217 88.6875 66.9391 88.6875 68V76H96.75V72C96.75 70.9391 97.1747 69.9217 97.9307 69.1716C98.6867 68.4214 99.7121 68 100.781 68C101.85 68 102.876 68.4214 103.632 69.1716C104.388 69.9217 104.813 70.9391 104.813 72V96Z" fill="#FAFAFA" fill-opacity="0.9"/>
</svg>
