<svg width="124" height="124" viewBox="0 0 124 124" fill="none" xmlns="http://www.w3.org/2000/svg">
<path d="M51.6667 25.8333L62 15.5M41.3333 82.6667L82.6667 41.3333M62 108.5L72.3333 98.1667M85.25 98.1667C88.6757 98.1667 91.9611 96.8058 94.3835 94.3835C96.8058 91.9611 98.1667 88.6757 98.1667 85.25C98.1667 81.8243 96.8058 78.5389 94.3835 76.1165C91.9611 73.6942 88.6757 72.3333 85.25 72.3333C81.8243 72.3333 78.5389 73.6942 76.1165 76.1165C73.6942 78.5389 72.3333 81.8243 72.3333 85.25C72.3333 88.6757 73.6942 91.9611 76.1165 94.3835C78.5389 96.8058 81.8243 98.1667 85.25 98.1667ZM38.75 51.6667C42.1757 51.6667 45.4611 50.3058 47.8835 47.8835C50.3058 45.4611 51.6667 42.1757 51.6667 38.75C51.6667 35.3243 50.3058 32.0389 47.8835 29.6165C45.4611 27.1942 42.1757 25.8333 38.75 25.8333C35.3243 25.8333 32.0389 27.1942 29.6165 29.6165C27.1942 32.0389 25.8333 35.3243 25.8333 38.75C25.8333 42.1757 27.1942 45.4611 29.6165 47.8835C32.0389 50.3058 35.3243 51.6667 38.75 51.6667ZM28.4167 108.5C31.8424 108.5 35.1278 107.139 37.5501 104.717C39.9725 102.294 41.3333 99.009 41.3333 95.5833C41.3333 92.1576 39.9725 88.8722 37.5501 86.4499C35.1278 84.0275 31.8424 82.6667 28.4167 82.6667C24.991 82.6667 21.7055 84.0275 19.2832 86.4499C16.8609 88.8722 15.5 92.1576 15.5 95.5833C15.5 99.009 16.8609 102.294 19.2832 104.717C21.7055 107.139 24.991 108.5 28.4167 108.5ZM95.5833 41.3333C99.009 41.3333 102.294 39.9725 104.717 37.5501C107.139 35.1278 108.5 31.8424 108.5 28.4167C108.5 24.991 107.139 21.7055 104.717 19.2832C102.294 16.8609 99.009 15.5 95.5833 15.5C92.1576 15.5 88.8722 16.8609 86.4499 19.2832C84.0275 21.7055 82.6667 24.991 82.6667 28.4167C82.6667 31.8424 84.0275 35.1278 86.4499 37.5501C88.8722 39.9725 92.1576 41.3333 95.5833 41.3333Z" stroke="#FAFAFA" stroke-opacity="0.9" stroke-width="6.48534" stroke-linecap="round" stroke-linejoin="round"/>
</svg>
