<svg width="103" height="103" viewBox="0 0 103 103" fill="none" xmlns="http://www.w3.org/2000/svg">
<path d="M51.5 73.8166V88.7086M36.6079 88.7086H66.3921M78.3229 14.2911H24.6771C21.2624 14.2911 17.9876 15.6476 15.5731 18.0621C13.1586 20.4767 11.8021 23.7515 11.8021 27.1661V60.9416C11.8021 64.3562 13.1586 67.631 15.5731 70.0456C17.9876 72.4601 21.2624 73.8166 24.6771 73.8166H78.3229C81.7376 73.8166 85.0124 72.4601 87.4269 70.0456C89.8415 67.631 91.1979 64.3562 91.1979 60.9416V27.1661C91.1979 23.7515 89.8415 20.4767 87.4269 18.0621C85.0124 15.6476 81.7376 14.2911 78.3229 14.2911Z" stroke="#FAFAFA" stroke-opacity="0.9" stroke-width="6.4375" stroke-linecap="round" stroke-linejoin="round"/>
<path d="M38.625 43.702L45.8737 50.9506C46.1289 51.2075 46.4325 51.4114 46.7669 51.5506C47.1013 51.6897 47.4599 51.7613 47.8221 51.7613C48.1843 51.7613 48.5429 51.6897 48.8773 51.5506C49.2116 51.4114 49.5152 51.2075 49.7705 50.9506L64.375 36.3461" stroke="#FAFAFA" stroke-opacity="0.9" stroke-width="6.4375" stroke-linecap="round" stroke-linejoin="round"/>
</svg>
