<svg width="145" height="150" viewBox="0 0 145 150" fill="none" xmlns="http://www.w3.org/2000/svg">
<path d="M46.12 13V32.0769H55.6335V13H46.12ZM65.147 17.7692V32.0769H74.6605V17.7692H65.147ZM16.9849 36.8462L17.5795 42.0637L26.2035 124.18C26.9645 131.43 33.2054 137 40.4737 137H85.0636C92.3319 137 98.5728 131.43 99.3338 124.18L101.57 103.615H112.715C120.539 103.615 126.985 97.1531 126.985 89.3077V75C126.985 67.1546 120.539 60.6923 112.715 60.6923H106.027L107.958 42.0637L108.552 36.8462H16.9849ZM27.6876 46.3846H97.8497L89.8203 123.141C89.7087 124.326 89.1587 125.427 88.2784 126.227C87.3981 127.026 86.2514 127.467 85.0636 127.462H40.4737C38.005 127.462 35.9786 125.616 35.717 123.141L27.6876 46.3846ZM104.985 70.2308H112.715C115.407 70.2308 117.471 72.3006 117.471 75V89.3077C117.471 92.0071 115.407 94.0769 112.715 94.0769H102.459L104.985 70.2308Z" fill="#252525"/>
</svg>
