<svg width="62" height="62" viewBox="0 0 62 62" fill="none" xmlns="http://www.w3.org/2000/svg">
<path d="M31 0C48.1207 0.000131943 62 13.8793 62 31C62 48.1207 48.1207 61.9999 31 62C13.8792 62 0 48.1208 0 31C0 13.8792 13.8792 0 31 0ZM26.0176 19C25.2882 19 24.8477 19.5419 24.8477 20.0586C24.8477 21.1677 26.5031 21.4243 26.6729 24.5498V31.3301C26.6728 32.8148 26.407 33.0859 25.8203 33.0859C24.263 33.0859 20.4736 27.3538 18.2246 20.792C17.7866 19.517 17.3437 19.002 16.1699 19.002H11.5762C10.262 19.002 10 19.6222 10 20.3027C10.0004 21.5262 11.5577 27.5754 17.2539 35.5752C21.0518 41.0384 26.3986 43.9999 31.2695 44C34.1892 44 34.5498 43.3423 34.5498 42.208V38.0791C34.5498 36.7642 34.8286 36.499 35.7529 36.499C36.432 36.499 37.6014 36.8438 40.3281 39.4756C43.4427 42.5969 43.9588 43.998 45.709 43.998H50.3027C51.6148 43.998 52.2708 43.3401 51.8936 42.042C51.4805 40.7502 49.9927 38.8706 48.0186 36.6465C46.9454 35.3778 45.3419 34.0118 44.8535 33.3291C44.1726 32.4492 44.3694 32.0606 44.8535 31.2793C44.8556 31.2814 50.4541 23.3802 51.0371 20.6934C51.3305 19.7167 51.0368 19.0001 49.6494 19H45.0527C43.8835 19 43.3491 19.6194 43.0557 20.2998C43.0557 20.2998 40.7179 26.0117 37.4062 29.7148C36.3375 30.7921 35.8492 31.1328 35.2666 31.1328C34.9753 31.1327 34.5518 30.792 34.5518 29.8154V20.6934C34.5518 19.5214 34.2146 19.0001 33.2402 19H26.0176Z" fill="#595656"/>
</svg>
