<svg width="62" height="62" viewBox="0 0 62 62" fill="none" xmlns="http://www.w3.org/2000/svg">
<g clip-path="url(#clip0_114_2)">
<path d="M61.5931 18.0175C61.5931 12.5683 57.5849 8.18473 52.6322 8.18473C45.9236 7.87109 39.0818 7.75 32.0898 7.75H29.9102C22.9352 7.75 16.0813 7.87109 9.37266 8.18594C4.43204 8.18594 0.423832 12.5938 0.423832 18.043C0.121098 22.3527 -0.00726167 26.6636 3.95891e-06 30.9746C-0.0121054 35.2855 0.125134 39.6005 0.411723 43.9195C0.411723 49.3687 4.41993 53.7886 9.36055 53.7886C16.4082 54.1156 23.6375 54.2609 30.9879 54.2488C38.3504 54.273 45.5595 54.1196 52.6152 53.7886C57.568 53.7886 61.5762 49.3687 61.5762 43.9195C61.8668 39.5964 62 35.2855 61.9879 30.9625C62.0153 26.6515 61.8838 22.3365 61.5931 18.0175ZM25.0664 42.8539V19.0589L42.625 30.9504L25.0664 42.8539Z" fill="#595656"/>
</g>
<defs>
<clipPath id="clip0_114_2">
<rect width="62" height="62" fill="white"/>
</clipPath>
</defs>
</svg>
