<svg width="145" height="150" viewBox="0 0 145 150" fill="none" xmlns="http://www.w3.org/2000/svg">
<path fill-rule="evenodd" clip-rule="evenodd" d="M36.1991 67.4995C40.0394 67.4995 43.7223 65.9192 46.4378 63.1061C49.1532 60.2931 50.6788 56.4778 50.6788 52.4995C50.6788 48.5213 49.1532 44.706 46.4378 41.8929C43.7223 39.0799 40.0394 37.4995 36.1991 37.4995C32.3589 37.4995 28.6759 39.0799 25.9605 41.8929C23.245 44.706 21.7195 48.5213 21.7195 52.4995C21.7195 56.4778 23.245 60.2931 25.9605 63.1061C28.6759 65.9192 32.3589 67.4995 36.1991 67.4995ZM36.1991 74.9995C39.0514 74.9995 41.8757 74.4175 44.5108 73.2868C47.1459 72.1561 49.5403 70.4987 51.5571 68.4094C53.5739 66.3201 55.1738 63.8397 56.2653 61.1099C57.3568 58.3801 57.9186 55.4543 57.9186 52.4995C57.9186 49.5448 57.3568 46.619 56.2653 43.8891C55.1738 41.1593 53.5739 38.6789 51.5571 36.5896C49.5403 34.5003 47.1459 32.843 44.5108 31.7122C41.8757 30.5815 39.0514 29.9995 36.1991 29.9995C30.4388 29.9995 24.9143 32.37 20.8412 36.5896C16.768 40.8092 14.4797 46.5321 14.4797 52.4995C14.4797 58.4669 16.768 64.1898 20.8412 68.4094C24.9143 72.629 30.4388 74.9995 36.1991 74.9995Z" fill="#252525"/>
<path fill-rule="evenodd" clip-rule="evenodd" d="M27.9023 66.7208C28.2394 67.0692 28.5068 67.483 28.6893 67.9386C28.8718 68.3942 28.9658 68.8826 28.9658 69.3758C28.9658 69.8691 28.8718 70.3575 28.6893 70.8131C28.5068 71.2687 28.2394 71.6825 27.9023 72.0308L25.4552 74.5583C20.746 79.4382 18.1002 86.0557 18.0996 92.9558V106.876C18.0996 107.87 17.7182 108.824 17.0393 109.527C16.3604 110.231 15.4397 110.626 14.4797 110.626C13.5196 110.626 12.5989 110.231 11.92 109.527C11.2411 108.824 10.8597 107.87 10.8597 106.876V92.9558C10.8608 84.0667 14.2696 75.5419 20.3367 69.2558L22.7765 66.7208C23.1127 66.3716 23.5122 66.0946 23.952 65.9055C24.3918 65.7165 24.8632 65.6191 25.3394 65.6191C25.8155 65.6191 26.287 65.7165 26.7268 65.9055C27.1666 66.0946 27.566 66.3716 27.9023 66.7208ZM113.274 64.4708C112.937 64.8192 112.67 65.233 112.487 65.6886C112.305 66.1442 112.211 66.6326 112.211 67.1258C112.211 67.6191 112.305 68.1075 112.487 68.5631C112.67 69.0187 112.937 69.4325 113.274 69.7808L115.721 72.3083C120.431 77.1882 123.076 83.8057 123.077 90.7058V106.876C123.077 107.87 123.458 108.824 124.137 109.527C124.816 110.231 125.737 110.626 126.697 110.626C127.657 110.626 128.578 110.231 129.257 109.527C129.935 108.824 130.317 107.87 130.317 106.876V90.7058C130.316 81.8167 126.907 73.2919 120.84 67.0058L118.4 64.4708C118.064 64.1216 117.664 63.8445 117.225 63.6555C116.785 63.4665 116.313 63.3691 115.837 63.3691C115.361 63.3691 114.89 63.4665 114.45 63.6555C114.01 63.8445 113.61 64.1216 113.274 64.4708Z" fill="#252525"/>
<path fill-rule="evenodd" clip-rule="evenodd" d="M101.357 67.4995C97.5172 67.4995 93.8343 65.9192 91.1188 63.1061C88.4034 60.2931 86.8778 56.4778 86.8778 52.4995C86.8778 48.5213 88.4034 44.706 91.1188 41.8929C93.8343 39.0799 97.5172 37.4995 101.357 37.4995C105.198 37.4995 108.881 39.0799 111.596 41.8929C114.312 44.706 115.837 48.5213 115.837 52.4995C115.837 56.4778 114.312 60.2931 111.596 63.1061C108.881 65.9192 105.198 67.4995 101.357 67.4995ZM101.357 74.9995C98.5052 74.9995 95.6809 74.4175 93.0458 73.2868C90.4107 72.1561 88.0163 70.4987 85.9995 68.4094C83.9826 66.3201 82.3828 63.8397 81.2913 61.1099C80.1998 58.3801 79.638 55.4543 79.638 52.4995C79.638 49.5448 80.1998 46.619 81.2913 43.8891C82.3828 41.1593 83.9826 38.6789 85.9995 36.5896C88.0163 34.5003 90.4107 32.843 93.0458 31.7122C95.6809 30.5815 98.5052 29.9995 101.357 29.9995C107.118 29.9995 112.642 32.37 116.715 36.5896C120.789 40.8092 123.077 46.5321 123.077 52.4995C123.077 58.4669 120.789 64.1898 116.715 68.4094C112.642 72.629 107.118 74.9995 101.357 74.9995ZM68.7783 99.3745C63.978 99.3745 59.3743 101.35 55.98 104.866C52.5856 108.383 50.6787 113.152 50.6787 118.125V127.875C50.6787 128.869 50.2973 129.823 49.6185 130.526C48.9396 131.229 48.0189 131.625 47.0588 131.625C46.0988 131.625 45.178 131.229 44.4992 130.526C43.8203 129.823 43.4389 128.869 43.4389 127.875V118.125C43.4389 111.163 46.1086 104.486 50.8606 99.563C55.6127 94.6401 62.0579 91.8745 68.7783 91.8745C75.4987 91.8745 81.9439 94.6401 86.6959 99.563C91.448 104.486 94.1176 111.163 94.1176 118.125V127.875C94.1176 128.869 93.7363 129.823 93.0574 130.526C92.3785 131.229 91.4578 131.625 90.4977 131.625C89.5377 131.625 88.6169 131.229 87.9381 130.526C87.2592 129.823 86.8778 128.869 86.8778 127.875V118.125C86.8778 115.662 86.4097 113.224 85.5001 110.949C84.5905 108.674 83.2573 106.607 81.5766 104.866C79.8959 103.125 77.9006 101.744 75.7047 100.802C73.5087 99.8595 71.1551 99.3745 68.7783 99.3745Z" fill="#252525"/>
<path fill-rule="evenodd" clip-rule="evenodd" d="M68.7783 88.125C72.6185 88.125 76.3015 86.5446 79.0169 83.7316C81.7324 80.9186 83.2579 77.1032 83.2579 73.125C83.2579 69.1468 81.7324 65.3314 79.0169 62.5184C76.3015 59.7054 72.6185 58.125 68.7783 58.125C64.9381 58.125 61.2551 59.7054 58.5396 62.5184C55.8242 65.3314 54.2987 69.1468 54.2987 73.125C54.2987 77.1032 55.8242 80.9186 58.5396 83.7316C61.2551 86.5446 64.9381 88.125 68.7783 88.125ZM68.7783 95.625C74.5387 95.625 80.0631 93.2545 84.1363 89.0349C88.2095 84.8153 90.4978 79.0924 90.4978 73.125C90.4978 67.1576 88.2095 61.4347 84.1363 57.2151C80.0631 52.9955 74.5387 50.625 68.7783 50.625C63.0179 50.625 57.4935 52.9955 53.4203 57.2151C49.3471 61.4347 47.0588 67.1576 47.0588 73.125C47.0588 79.0924 49.3471 84.8153 53.4203 89.0349C57.4935 93.2545 63.0179 95.625 68.7783 95.625Z" fill="#252525"/>
</svg>
