<svg width="145" height="150" viewBox="0 0 145 150" fill="none" xmlns="http://www.w3.org/2000/svg">
<path d="M113.86 74.5V95.6875H29.1099V39.1875H53.8286V32.125H29.1099C27.2368 32.125 25.4404 32.8691 24.1159 34.1936C22.7914 35.518 22.0474 37.3144 22.0474 39.1875V95.6875C22.0474 97.5606 22.7914 99.357 24.1159 100.681C25.4404 102.006 27.2368 102.75 29.1099 102.75H57.3599V116.875H43.2349V123.938H99.7349V116.875H85.6099V102.75H113.86C115.733 102.75 117.529 102.006 118.854 100.681C120.178 99.357 120.922 97.5606 120.922 95.6875V74.5H113.86ZM78.5474 116.875H64.4224V102.75H78.5474V116.875Z" fill="#252525"/>
<path d="M78.5474 81.5629H78.5121C77.7512 81.5549 77.0132 81.3014 76.4081 80.8401C75.803 80.3788 75.363 79.7343 75.1538 79.0027L68.8223 56.8441H53.8286V49.7816H71.4849C72.2524 49.7812 72.9992 50.0309 73.6121 50.4928C74.2251 50.9548 74.6709 51.6039 74.8819 52.3418L78.6745 65.6193L89.3 31.0837C89.5274 30.3659 89.9761 29.7384 90.5819 29.2912C91.1876 28.844 91.9194 28.6 92.6724 28.5941C93.4164 28.583 94.1442 28.8119 94.7479 29.247C95.3515 29.6821 95.7989 30.3001 96.0235 31.0095L102.277 49.7816H120.922V56.8441H99.7349C98.9934 56.8443 98.2707 56.6111 97.6693 56.1776C97.0678 55.7441 96.618 55.1322 96.3837 54.4288L92.8066 43.6938L81.9232 79.0698C81.7012 79.7918 81.2534 80.4235 80.6458 80.8722C80.0382 81.321 79.3027 81.563 78.5474 81.5629Z" fill="#252525"/>
</svg>
