<svg width="145" height="150" viewBox="0 0 145 150" fill="none" xmlns="http://www.w3.org/2000/svg">
<g clip-path="url(#clip0_20_68)">
<path fill-rule="evenodd" clip-rule="evenodd" d="M71.5949 52.5088H79.4849C80.2806 52.5088 81.0436 52.1927 81.6062 51.6301C82.1689 51.0675 82.4849 50.3044 82.4849 49.5088C82.4849 48.7131 82.1689 47.9501 81.6062 47.3875C81.0436 46.8249 80.2806 46.5088 79.4849 46.5088H71.5949C70.5479 46.5088 69.3299 46.6798 68.1449 47.2588C63.8729 49.3438 61.4549 52.9498 60.1259 56.4628C59.6759 57.6478 59.3429 58.8478 59.0969 60.0088H65.2709C65.4049 59.5288 65.5599 59.0538 65.7359 58.5838C66.7019 56.0278 68.2709 53.8738 70.7759 52.6498C71.0351 52.5391 71.3137 52.4908 71.5949 52.5088ZM53.9879 63.0088C52.3319 63.0088 50.9489 64.3768 51.3989 65.9728C53.1299 72.1498 60.1769 76.9558 68.9879 77.8558V82.5298C66.9029 82.5808 64.7369 82.7488 62.8979 83.2828C61.4639 83.7028 59.9429 84.4168 58.7789 85.7248C57.5609 87.0928 56.9879 88.8208 56.9879 90.7498C56.9879 92.6788 57.5579 94.4098 58.7759 95.7808C59.9399 97.0918 61.4609 97.8118 62.8979 98.2318C63.8579 98.5108 64.9079 98.6908 65.9879 98.8048V92.7658C65.5116 92.7011 65.0404 92.6029 64.5779 92.4718C63.7679 92.2318 63.4109 91.9678 63.2639 91.7998C63.1679 91.6918 62.9879 91.4488 62.9879 90.7498C62.9879 90.0598 63.1679 89.8198 63.2579 89.7148C63.4079 89.5468 63.7619 89.2798 64.5779 89.0428C65.7269 88.7098 67.2089 88.5838 68.9879 88.5358V105.009H59.9879V111.009H83.9879V105.009H74.9879V88.3978C78.2939 88.1398 80.9729 87.4138 82.9889 86.1148C85.8239 84.2848 86.9879 81.5638 86.9879 78.6748C87.0117 77.1319 86.6289 75.6099 85.8779 74.2618C89.2499 72.1318 91.6589 69.2458 92.5769 65.9728C93.0269 64.3768 91.6469 63.0088 89.9879 63.0088H53.9879ZM79.7369 81.0688C78.8879 81.6178 77.4149 82.1398 74.9879 82.3738V77.8558C76.7903 77.6789 78.5702 77.3211 80.3009 76.7878C80.7959 77.2588 80.9879 77.8318 80.9879 78.6778C80.9879 79.7878 80.6519 80.4808 79.7369 81.0688Z" fill="#252525"/>
<path fill-rule="evenodd" clip-rule="evenodd" d="M95.9849 104C95.9849 101.239 98.2235 99 100.985 99H120.985C123.746 99 125.985 96.7614 125.985 94V56C125.985 53.2386 123.746 51 120.985 51H100.985C98.2235 51 95.9849 48.7614 95.9849 46V26C95.9849 23.2386 93.7463 21 90.9849 21H52.9849C50.2235 21 47.9849 23.2386 47.9849 26V46C47.9849 48.7614 45.7463 51 42.9849 51H22.9849C20.2235 51 17.9849 53.2386 17.9849 56V94C17.9849 96.7614 20.2235 99 22.9849 99H42.9849C45.7463 99 47.9849 101.239 47.9849 104V124C47.9849 126.761 50.2235 129 52.9849 129H90.9849C93.7463 129 95.9849 126.761 95.9849 124V104ZM84.9849 123C87.7463 123 89.9849 120.761 89.9849 118V98C89.9849 95.2386 92.2235 93 94.9849 93H114.985C117.746 93 119.985 90.7614 119.985 88V62C119.985 59.2386 117.746 57 114.985 57H94.9849C92.2235 57 89.9849 54.7614 89.9849 52V32C89.9849 29.2386 87.7463 27 84.9849 27H58.9849C56.2235 27 53.9849 29.2386 53.9849 32V52C53.9849 54.7614 51.7463 57 48.9849 57H28.9849C26.2235 57 23.9849 59.2386 23.9849 62V88C23.9849 90.7614 26.2235 93 28.9849 93H48.9849C51.7463 93 53.9849 95.2386 53.9849 98V118C53.9849 120.761 56.2235 123 58.9849 123H84.9849Z" fill="#252525"/>
</g>
<defs>
<clipPath id="clip0_20_68">
<rect width="144.796" height="150" fill="white"/>
</clipPath>
</defs>
</svg>
