<svg width="145" height="150" viewBox="0 0 145 150" fill="none" xmlns="http://www.w3.org/2000/svg">
<path d="M78.9449 127L71.9849 123L87.9849 95H111.985C114.107 95 116.141 94.1571 117.642 92.6569C119.142 91.1566 119.985 89.1217 119.985 87V39C119.985 36.8783 119.142 34.8434 117.642 33.3431C116.141 31.8429 114.107 31 111.985 31H31.9849C29.8632 31 27.8284 31.8429 26.3281 33.3431C24.8278 34.8434 23.9849 36.8783 23.9849 39V87C23.9849 89.1217 24.8278 91.1566 26.3281 92.6569C27.8284 94.1571 29.8632 95 31.9849 95H67.9849V103H31.9849C27.7415 103 23.6718 101.314 20.6712 98.3137C17.6706 95.3131 15.9849 91.2435 15.9849 87V39C15.9849 34.7565 17.6706 30.6869 20.6712 27.6863C23.6718 24.6857 27.7415 23 31.9849 23H111.985C116.228 23 120.298 24.6857 123.299 27.6863C126.299 30.6869 127.985 34.7565 127.985 39V87C127.985 91.2435 126.299 95.3131 123.299 98.3137C120.298 101.314 116.228 103 111.985 103H92.6249L78.9449 127Z" fill="#252525"/>
<path d="M39.9849 46.9995H103.985V54.9995H39.9849V46.9995ZM39.9849 70.9995H79.9849V78.9995H39.9849V70.9995Z" fill="#252525"/>
</svg>
