<svg width="145" height="150" viewBox="0 0 145 150" fill="none" xmlns="http://www.w3.org/2000/svg">
<path d="M66.4891 40.2656V57.0006L49.5691 62.8456L32.6491 57.0006V40.2656" stroke="#252525" stroke-width="7.5" stroke-linecap="round" stroke-linejoin="round"/>
<path d="M15.7341 33.0945L49.5691 18.7495L83.4041 33.0945L49.5691 47.4345L15.7341 33.0945ZM15.7341 33.0945V52.2195M122.734 88.2495V64.4145C122.734 63.4425 122.348 62.5103 121.661 61.823C120.973 61.1356 120.041 60.7495 119.069 60.7495H82.3991C81.9178 60.7495 81.4412 60.8443 80.9965 61.0285C80.5519 61.2127 80.1479 61.4826 79.8075 61.823C79.4672 62.1633 79.1972 62.5673 79.0131 63.012C78.8289 63.4566 78.7341 63.9332 78.7341 64.4145V88.2495H122.734Z" stroke="#252525" stroke-width="7.5" stroke-linecap="round" stroke-linejoin="round"/>
<path d="M65.2342 90.9155C65.2342 89.9435 64.848 89.0113 64.1607 88.3239C63.4734 87.6366 62.5412 87.2505 61.5692 87.2505H24.8992C23.9271 87.2505 22.9949 87.6366 22.3076 88.3239C21.6203 89.0113 21.2342 89.9435 21.2342 90.9155V114.75M21.2342 114.75H65.2342L70.4192 126.095C70.6689 126.654 70.7749 127.265 70.7274 127.875C70.6799 128.484 70.4805 129.072 70.1473 129.585C69.8142 130.097 69.358 130.518 68.8203 130.809C68.2826 131.1 67.6805 131.252 67.0692 131.25H19.3992C18.7887 131.249 18.1882 131.096 17.6519 130.805C17.1157 130.513 16.6606 130.092 16.328 129.58C15.9954 129.068 15.7957 128.482 15.747 127.873C15.6983 127.265 15.8022 126.654 16.0492 126.095L21.2342 114.75ZM127.919 99.5955C128.168 100.153 128.273 100.764 128.225 101.373C128.177 101.982 127.977 102.569 127.644 103.081C127.311 103.593 126.855 104.014 126.318 104.304C125.781 104.595 125.18 104.747 124.569 104.745H76.8992C76.2884 104.747 75.6871 104.595 75.15 104.304C74.6129 104.014 74.1571 103.593 73.8241 103.081C73.4911 102.569 73.2915 101.982 73.2435 101.373C73.1955 100.764 73.3005 100.153 73.5492 99.5955L78.7342 88.2455H122.734L127.919 99.5955Z" stroke="#252525" stroke-width="7.5" stroke-linecap="round" stroke-linejoin="round"/>
</svg>
