<svg width="63" height="63" viewBox="0 0 63 63" fill="none" xmlns="http://www.w3.org/2000/svg">
<path d="M31.3605 0C14.0495 0 0 14.0493 0 31.36C0 48.6707 14.0495 62.72 31.3605 62.72C48.6714 62.72 62.7209 48.6707 62.7209 31.36C62.7209 14.0493 48.6714 0 31.3605 0ZM45.9117 21.3248C45.4413 26.2797 43.4029 38.3219 42.368 43.8726C41.9289 46.2246 41.0508 47.0086 40.2355 47.1027C38.4166 47.2595 37.0367 45.911 35.2805 44.7507C32.5208 42.9318 30.9528 41.8029 28.2871 40.0467C25.1825 38.0083 27.1895 36.8794 28.9771 35.0605C29.4475 34.5901 37.4758 27.2832 37.6326 26.6246C37.6543 26.5249 37.6514 26.4213 37.6241 26.323C37.5968 26.2246 37.5459 26.1344 37.4758 26.0602C37.2876 25.9034 37.0367 25.9661 36.8172 25.9974C36.5349 26.0602 32.1445 28.9766 23.5831 34.7469C22.3287 35.5936 21.1997 36.0326 20.1961 36.0013C19.0672 35.9699 16.9347 35.3741 15.3353 34.841C13.3596 34.2138 11.8229 33.8688 11.9483 32.7712C12.0111 32.2067 12.7951 31.6422 14.269 31.0464C23.4263 27.0637 29.5102 24.4294 32.5522 23.175C41.2704 19.5373 43.0579 18.9101 44.2496 18.9101C44.5005 18.9101 45.0964 18.9728 45.4727 19.2864C45.7863 19.5373 45.8804 19.8822 45.9117 20.1331C45.8804 20.3213 45.9431 20.8858 45.9117 21.3248Z" fill="#595656"/>
</svg>
